HIERARCHY
ROOT Hips
{
	OFFSET 0.00000 0.00000 0.00000
	CHANNELS 6 Xposition Yposition Zposition Zrotation Yrotation Xrotation 
	JOINT LHipJoint
	{
		OFFSET 0 0 0
		CHANNELS 3 Zrotation Yrotation Xrotation
		JOINT LeftHip
		{
			OFFSET 3.13874 -1.57224 1.49786
			CHANNELS 3 Zrotation Yrotation Xrotation
			JOINT LeftKnee
			{
				OFFSET 2.10955 -5.79594 0.00000
				CHANNELS 3 Zrotation Yrotation Xrotation
				JOINT LeftAnkle
				{
					OFFSET 2.41843 -6.64458 0.00000
					CHANNELS 3 Zrotation Yrotation Xrotation
					JOINT LeftToe
					{
						OFFSET 0.04713 -0.12948 1.66229
						CHANNELS 3 Zrotation Yrotation Xrotation
						End Site
						{
							OFFSET 0.00000 -0.00000 0.85167
						}
					}
				}
			}
		}
	}
	JOINT RHipJoint
	{
		OFFSET 0 0 0
		CHANNELS 3 Zrotation Yrotation Xrotation
		JOINT RightHip
		{
			OFFSET -3.13988 -1.57224 1.49786
			CHANNELS 3 Zrotation Yrotation Xrotation
			JOINT RightKnee
			{
				OFFSET -2.15006 -5.90725 0.00000
				CHANNELS 3 Zrotation Yrotation Xrotation
				JOINT RightAnkle
				{
					OFFSET -2.34496 -6.44273 0.00000
					CHANNELS 3 Zrotation Yrotation Xrotation
					JOINT RightToe
					{
						OFFSET -0.08699 -0.23900 1.55223
						CHANNELS 3 Zrotation Yrotation Xrotation
						End Site
						{
							OFFSET -0.00000 -0.00000 0.80281
						}
					}
				}
			}
		}
	}
	JOINT lowerback
	{
		OFFSET 0 0 0
		CHANNELS 3 Zrotation Yrotation Xrotation
		JOINT Chest
		{
			OFFSET 0.01292 1.96517 -0.16495
			CHANNELS 3 Zrotation Yrotation Xrotation
			JOINT Chest2
			{
				OFFSET 0.02122 1.88666 0.19706
				CHANNELS 3 Zrotation Yrotation Xrotation
				JOINT lowerneck
				{
					OFFSET 0 0 0
					CHANNELS 3 Zrotation Yrotation Xrotation
					JOINT Neck
					{
						OFFSET -0.01683 1.81591 0.07903
						CHANNELS 3 Zrotation Yrotation Xrotation
						JOINT Head
						{
							OFFSET 0.00815 1.74013 -0.47700
							CHANNELS 3 Zrotation Yrotation Xrotation
							End Site
							{
								OFFSET -0.00204 1.83225 -0.16933
							}
						}
					}
				}
				JOINT LeftCollar
				{
					OFFSET 0 0 0
					CHANNELS 3 Zrotation Yrotation Xrotation
					JOINT LeftShoulder
					{
						OFFSET 3.38482 1.41533 0.19802
CHANNELS 3 Zrotation Xrotation Yrotation
						JOINT LeftElbow
						{
OFFSET 0 -4.327120 0.000000
CHANNELS 3 Zrotation Xrotation Yrotation
							JOINT LeftWrist
							{
OFFSET 0 -3.285870 -0.000000
CHANNELS 3 Zrotation Xrotation Yrotation
								JOINT lhand
								{
									OFFSET 0 0 0
CHANNELS 3 Zrotation Xrotation Yrotation
									JOINT LFingers
									{
OFFSET 0 -0.433160 -0.000000
CHANNELS 3 Zrotation Xrotation Yrotation
										End Site
										{
OFFSET 0 -0.349220 -0.000000
										}
									}
								}
								JOINT LThumb
								{
OFFSET 0 0.000000 0.000000
CHANNELS 3 Zrotation Xrotation Yrotation
									End Site
									{
OFFSET 0 -0.354560 0.354560
									}
								}
							}
						}
					}
				}
				JOINT RightCollar
				{
					OFFSET 0 0 0
					CHANNELS 3 Zrotation Yrotation Xrotation
					JOINT RightShoulder
					{
						OFFSET -3.09725 1.62858 -0.14144
CHANNELS 3 Zrotation Xrotation Yrotation
						JOINT RightElbow
						{
OFFSET 0 -4.291040 0.000000
CHANNELS 3 Zrotation Xrotation Yrotation
							JOINT RightWrist
							{
OFFSET 0 -3.227200 -0.000000
CHANNELS 3 Zrotation Xrotation Yrotation
								JOINT rhand
								{
									OFFSET 0 0 0
CHANNELS 3 Zrotation Xrotation Yrotation
									JOINT RFingers
									{
OFFSET 0 -0.543620 -0.000000
CHANNELS 3 Zrotation Xrotation Yrotation
										End Site
										{
OFFSET 0 -0.438280 -0.000000
										}
									}
								}
								JOINT RThumb
								{
OFFSET 0 0.000000 0.000000
CHANNELS 3 Zrotation Xrotation Yrotation
									End Site
									{
OFFSET 0 -0.444970 0.444970
									}
								}
							}
						}
					}
				}
			}
		}
	}
}
MOTION
Frames: 12
Frame Time: 0.008333333333333333
-27.558800 15.857500 6.486800 -176.782000 -31.908200 -168.493000 0.000000 0.000000 0.000000 -26.751700 -11.946800 -10.320300 1.263100 7.124000 20.083200 1.784200 4.082800 -26.970300 14.615400 -19.290200 -74.075500 0.000000 0.000000 0.000000 16.727700 30.527000 -12.666400 -0.187600 2.789700 -7.693700 -1.261400 -20.845300 -37.028900 -0.653200 -5.169700 14.393100 -4.229700 1.897300 8.680900 0.175200 1.532700 -9.314100 2.280000 1.027700 -15.427100 -14.680700 -8.197300 -13.635400 20.659000 -14.286400 19.730800 7.857200 -6.184600 11.330500 0.000000 0.000000 0.000000 7.726900 8.985700 -3.233700 11.259100 -18.684300 1.858100 41.525000 47.109000 -31.084100 0.000000 0.000000 0.000000 -7.125000 0.000000 0.000000 14.933600 68.275100 -8.416800 0.000000 0.000000 0.000000 -20.237100 15.215700 49.462200 -23.462700 -34.590900 -7.399300 -24.905700 -6.016000 12.200100 0.000000 0.000000 0.000000 7.125000 0.000000 -0.000000 2.122300 43.377500 0.085000
-27.535477 15.866416 6.533511 -176.550705 -31.649317 -168.669379 0.000000 0.000000 0.000000 -26.703890 -12.635970 -9.348277 1.101904 6.659729 18.714939 1.743949 4.861452 -27.094153 14.124575 -19.147740 -72.581706 0.000000 0.000000 0.000000 16.607077 30.640903 -12.683650 -0.152260 2.505685 -6.905809 -0.989660 -21.235789 -35.996728 -0.440641 -4.194124 11.633060 -4.240360 1.864802 8.695889 0.239743 1.504854 -9.227913 2.364378 1.021562 -15.331416 -14.431444 -8.227859 -14.130941 20.315869 -14.310822 20.124002 7.676169 -6.165605 11.528006 0.000000 0.000000 0.000000 7.792541 8.956820 -2.411826 11.094609 -18.432912 1.805897 39.884223 46.281892 -30.389955 0.000000 0.000000 0.000000 -7.125000 0.000000 0.000000 12.384052 66.988696 -6.642156 0.000000 0.000000 0.000000 -20.320702 15.241349 49.937131 -23.517940 -34.650274 -7.430699 -24.792120 -6.159494 12.042522 0.000000 0.000000 0.000000 7.125000 0.000000 0.000000 2.205062 43.193110 0.098568
-27.511364 15.875536 6.581508 -176.348624 -31.403610 -168.787619 0.000000 0.000000 0.000000 -26.685910 -13.381438 -8.427645 0.953007 6.208138 17.392195 1.715268 5.602533 -27.294141 13.554081 -18.966774 -70.832131 0.000000 0.000000 0.000000 16.424460 30.751155 -12.774669 -0.116452 2.185209 -6.018324 -0.782515 -21.571557 -35.245812 -0.261387 -3.213026 8.878366 -4.278425 1.802914 8.677631 0.326870 1.432747 -9.167407 2.499882 0.998480 -15.244117 -14.222417 -8.224792 -14.575267 19.971773 -14.279033 20.511391 7.514041 -6.128001 11.704739 0.000000 0.000000 0.000000 7.782457 8.944681 -1.437418 10.933331 -18.185818 1.755184 38.371848 45.705920 -29.853982 0.000000 0.000000 0.000000 -7.125000 0.000000 0.000000 10.117922 65.926346 -5.152216 0.000000 0.000000 0.000000 -20.409330 15.090655 50.502016 -23.456259 -34.583555 -7.395809 -24.641085 -6.248033 11.944280 0.000000 0.000000 0.000000 7.125000 0.000000 0.000000 2.329281 43.069312 0.111142
-27.486297 15.884904 6.631062 -176.181937 -31.173865 -168.835429 0.000000 0.000000 0.000000 -26.704064 -14.195107 -7.569267 0.819011 5.771907 16.124592 1.700602 6.298099 -27.586362 12.887071 -18.739161 -68.772697 0.000000 0.000000 0.000000 16.166740 30.856982 -12.955054 -0.080078 1.820563 -5.010185 -0.653623 -21.841036 -34.835618 -0.122480 -2.225240 6.130149 -4.349687 1.705421 8.619096 0.441354 1.307020 -9.138011 2.697323 0.954869 -15.166975 -14.062125 -8.180988 -14.957551 19.626510 -14.179150 20.891736 7.374811 -6.067851 11.856309 0.000000 0.000000 0.000000 7.680635 8.952822 -0.278227 10.775947 -17.943927 1.706276 37.015022 45.434180 -29.509623 0.000000 0.000000 0.000000 -7.125000 0.000000 0.000000 8.195133 65.135418 -4.007174 0.000000 0.000000 0.000000 -20.504045 14.726332 51.175874 -23.252939 -34.364083 -7.280614 -24.444678 -6.270000 11.917920 0.000000 0.000000 0.000000 7.125000 0.000000 0.000000 2.503722 43.018918 0.122513
-27.467890 15.892929 6.674598 -176.022260 -30.879029 -168.940501 0.000000 0.000000 0.000000 -27.122762 -16.019978 -5.263736 0.593337 4.874132 13.561230 1.692364 8.003465 -28.613874 11.654101 -18.208819 -64.852127 0.000000 0.000000 0.000000 15.987434 30.952584 -12.849303 -0.056792 1.521418 -4.185052 -0.485816 -22.572409 -34.769697 -0.051470 -1.270641 3.496690 -4.466700 1.558963 8.664627 0.607726 1.101536 -9.168973 2.995616 0.884323 -15.225451 -13.945481 -7.972292 -15.152272 19.412949 -13.886562 21.223701 7.336492 -5.931390 11.928939 0.000000 0.000000 0.000000 7.458738 9.180720 0.934428 10.716726 -17.852728 1.688044 34.533171 44.589527 -29.779722 0.000000 0.000000 0.000000 -7.125000 0.000000 0.000000 4.685365 64.710560 -2.258952 0.000000 0.000000 0.000000 -20.963017 14.899396 52.245542 -23.452498 -34.579277 -7.393765 -24.121476 -6.291148 12.090634 0.000000 0.000000 0.000000 7.125000 0.000000 0.000000 2.820266 43.170402 0.126638
-27.449888 15.900189 6.715078 -175.842821 -30.599151 -169.077890 0.000000 0.000000 0.000000 -27.335287 -17.207838 -3.712679 0.440103 4.256576 11.799748 1.671258 9.294130 -29.305003 10.510798 -17.675134 -61.166180 0.000000 0.000000 0.000000 15.858140 31.049847 -12.737748 -0.036180 1.204431 -3.311717 -0.151267 -23.857821 -34.529508 -0.039221 0.039732 -0.113053 -4.455665 1.436173 8.698996 0.684917 0.940677 -9.178624 3.111462 0.813486 -15.246405 -13.747357 -7.783234 -15.333570 19.262130 -13.659005 21.492702 7.293104 -5.816053 11.989629 0.000000 0.000000 0.000000 7.397396 9.358081 1.816582 10.702970 -17.831531 1.683837 32.567880 43.787406 -29.936506 0.000000 0.000000 0.000000 -7.125000 0.000000 0.000000 1.960377 64.316221 -0.921372 0.000000 0.000000 0.000000 -21.180556 15.023133 53.095313 -23.561486 -34.696961 -7.455491 -23.840323 -6.243349 12.325746 0.000000 0.000000 0.000000 7.125000 0.000000 0.000000 3.108475 43.393544 0.122695
-27.431346 15.906326 6.751194 -175.626386 -30.358681 -169.262668 0.000000 0.000000 0.000000 -27.099404 -17.053426 -3.798995 0.435064 4.232671 11.732297 1.625710 9.643916 -29.248923 9.637237 -17.193160 -58.258576 0.000000 0.000000 0.000000 15.804128 31.152056 -12.670297 -0.017896 0.842757 -2.316500 0.476720 -26.054805 -33.909210 -0.120045 1.998378 -5.506244 -4.204858 1.365428 8.693375 0.591301 0.875553 -9.138309 2.878874 0.747263 -15.173786 -13.393888 -7.661061 -15.526424 19.199396 -13.585546 21.657322 7.221325 -5.753383 12.043835 0.000000 0.000000 0.000000 7.648656 9.402338 2.092198 10.752525 -17.907898 1.699084 31.749237 43.171307 -29.771627 0.000000 0.000000 0.000000 -7.125000 0.000000 0.000000 0.954112 63.907125 -0.439786 0.000000 0.000000 0.000000 -20.892987 14.955359 53.472816 -23.430203 -34.555793 -7.380869 -23.659228 -6.071298 12.635475 0.000000 0.000000 0.000000 7.125000 0.000000 0.000000 3.318450 43.707472 0.105574
-27.412124 15.913509 6.783339 -175.425104 -30.177154 -169.451626 0.000000 0.000000 0.000000 -26.851921 -16.885637 -3.922098 0.436190 4.238133 11.747617 1.601481 9.817920 -29.212282 9.408227 -17.063221 -57.491286 0.000000 0.000000 0.000000 16.074768 30.103115 -12.488098 -0.007398 0.476119 -1.308533 -0.010702 -24.563040 -34.685916 -0.064696 1.138928 -3.137714 -4.118180 1.351325 8.678662 0.648541 0.875954 -9.147269 2.894753 0.741550 -15.173225 -13.293432 -7.580796 -15.547258 19.038843 -13.480787 21.825809 7.165954 -5.710466 12.067002 0.000000 0.000000 0.000000 7.569567 9.517032 2.195586 10.844561 -18.049477 1.727552 31.673119 43.022148 -29.816652 0.000000 0.000000 0.000000 -7.125000 0.000000 0.000000 0.833549 63.933773 -0.382710 0.000000 0.000000 0.000000 -20.988334 15.154184 53.856485 -23.410221 -34.534339 -7.369526 -23.498512 -5.958399 13.292117 0.000000 0.000000 0.000000 7.125000 0.000000 0.000000 3.570123 44.395329 0.050360
-27.391915 15.919674 6.814493 -175.277482 -29.992160 -169.613583 0.000000 0.000000 0.000000 -26.669495 -16.780984 -4.004763 0.436886 4.241432 11.756859 1.600873 9.897050 -29.264611 9.312127 -17.004099 -57.162887 0.000000 0.000000 0.000000 16.395219 28.572581 -12.418466 -0.001422 0.105121 -0.288869 -0.570791 -22.585925 -35.257267 -0.000405 -0.043636 0.119996 -4.116287 1.356769 8.633253 0.730183 0.893854 -9.155132 2.982122 0.754678 -15.157511 -13.248629 -7.514974 -15.517880 18.857068 -13.370568 21.966934 7.112826 -5.672977 12.070472 0.000000 0.000000 0.000000 7.410673 9.612751 2.201652 10.950452 -18.212172 1.760460 31.743413 42.889094 -29.888370 0.000000 0.000000 0.000000 -7.125000 0.000000 0.000000 0.894293 64.030595 -0.412441 0.000000 0.000000 0.000000 -21.166859 15.357867 54.233045 -23.414731 -34.539215 -7.372099 -23.257783 -5.920355 13.986718 0.000000 0.000000 0.000000 7.125000 0.000000 0.000000 3.906722 45.112086 -0.013321
-27.369367 15.922259 6.845505 -175.271668 -29.757893 -169.696280 0.000000 0.000000 0.000000 -26.679057 -16.864069 -3.948296 0.432234 4.218949 11.693479 1.652883 9.825206 -29.555863 9.160881 -16.909837 -56.644410 0.000000 0.000000 0.000000 16.639372 26.448992 -12.744412 -0.003037 -0.274901 0.755385 -0.589915 -21.703965 -34.311862 -0.001955 -0.254515 0.699334 -4.244598 1.379640 8.507009 0.779931 0.917436 -9.126898 3.105587 0.780651 -15.050650 -13.192033 -7.461995 -15.461477 18.680689 -13.265839 22.027988 7.055067 -5.637636 12.038943 0.000000 0.000000 0.000000 7.246957 9.607582 2.047433 11.067133 -18.391007 1.797093 31.731202 42.489043 -29.895154 0.000000 0.000000 0.000000 -7.125000 0.000000 0.000000 0.875492 64.034407 -0.403783 0.000000 0.000000 0.000000 -21.324566 15.396826 54.585351 -23.414085 -34.538504 -7.371711 -22.776844 -6.054674 14.556558 0.000000 0.000000 0.000000 7.125000 0.000000 0.000000 4.455887 45.660347 -0.075473
-27.348570 15.924567 6.871448 -175.315155 -29.600666 -169.821369 0.000000 0.000000 0.000000 -26.749026 -16.963512 -3.793685 0.426707 4.192226 11.618073 1.695953 9.718482 -29.761872 9.024379 -16.822992 -56.173854 0.000000 0.000000 0.000000 16.808465 24.650105 -12.763440 -0.011794 -0.642852 1.766740 -0.677785 -20.977607 -33.973566 -0.001525 -0.238697 0.655897 -4.314299 1.369290 8.517430 0.781160 0.892868 -9.113732 3.151413 0.776811 -15.041702 -13.099313 -7.453297 -15.542292 18.592455 -13.280494 22.166958 7.004587 -5.641185 12.096527 0.000000 0.000000 0.000000 7.173782 9.576979 1.468479 11.213073 -18.613890 1.843540 30.612319 40.985960 -29.668006 0.000000 0.000000 0.000000 -7.125000 0.000000 0.000000 -0.442582 63.484007 0.178715 0.000000 0.000000 0.000000 -21.373809 15.418413 54.853889 -23.386300 -34.508534 -7.355980 -22.459016 -6.283866 14.617157 0.000000 0.000000 0.000000 7.125000 0.000000 0.000000 4.760892 45.684945 -0.080122
-27.328434 15.926806 6.895524 -175.365008 -29.467168 -169.960621 0.000000 0.000000 0.000000 -26.825670 -17.061114 -3.613718 0.420764 4.163404 11.536740 1.732009 9.623651 -29.929326 8.911692 -16.750575 -55.784315 0.000000 0.000000 0.000000 16.934198 23.056757 -12.650144 -0.025026 -1.005722 2.764555 -0.812055 -20.295076 -33.973424 -0.001611 -0.205376 0.564414 -4.352992 1.348453 8.565974 0.767845 0.854886 -9.108644 3.166228 0.762959 -15.064183 -12.994842 -7.456092 -15.664957 18.531486 -13.330503 22.334721 6.956790 -5.656174 12.183058 0.000000 0.000000 0.000000 7.131828 9.539962 0.751358 11.369509 -18.852352 1.893677 29.231097 39.207504 -29.378339 0.000000 0.000000 0.000000 -7.125000 0.000000 0.000000 -2.061979 62.795488 0.890761 0.000000 0.000000 0.000000 -21.385755 15.437524 55.093119 -23.348562 -34.467813 -7.334623 -22.209480 -6.535325 14.522015 0.000000 0.000000 0.000000 7.125000 0.000000 0.000000 4.974657 45.551454 -0.068098
